<svg width="558" height="58" viewBox="0 0 558 58" fill="none" xmlns="http://www.w3.org/2000/svg">
<path d="M454.487 56.64C459.5 56.64 462.007 56.08 462.007 54.96V39.22H514.677V54.96L557.62 27.36L514.677 2.24V18.72H462.007V2.24C462.007 1.22666 459.527 0.719997 454.567 0.719997C449.607 0.719997 447.127 1.22666 447.127 2.24V27.36L434.327 2.72C433.847 1.92 432.487 1.38666 430.247 1.12C428.06 0.799998 426.14 0.639999 424.487 0.639999C420.274 0.639999 418.167 1.04 418.167 1.84V55.36C418.167 56.32 420.62 56.8 425.527 56.8C430.487 56.8 432.967 56.32 432.967 55.36V30.48L446.327 55.44C446.754 56.24 449.474 56.64 454.487 56.64Z" fill="#AE2428"/>
<path d="M404.714 22.96C405.727 22.96 406.234 24.8267 406.234 28.56C406.234 29.68 406.1 31.0133 405.834 32.56C405.62 34.0533 405.194 34.8 404.554 34.8H394.394V42.8H409.114C410.02 42.8 410.634 43.9733 410.954 46.32C411.114 47.3333 411.194 48.4267 411.194 49.6C411.194 50.72 411.034 52.1867 410.714 54C410.394 55.8133 409.86 56.72 409.114 56.72H381.754C379.727 56.72 378.714 55.8933 378.714 54.24V2.8C378.714 1.41334 379.327 0.720001 380.554 0.720001H409.194C410.314 0.720001 410.874 3.09333 410.874 7.84C410.874 12.5333 410.314 14.88 409.194 14.88H394.394V22.96H404.714Z" fill="#AE2428"/>
<path d="M338.294 37.2C339.307 38 341.04 39.0933 343.494 40.48C346 41.8667 348.374 42.56 350.614 42.56C352.907 42.56 354.054 41.68 354.054 39.92C354.054 39.12 353.734 38.4267 353.094 37.84C352.454 37.2 351.28 36.48 349.574 35.68C347.867 34.88 346.587 34.2667 345.734 33.84C344.88 33.36 343.734 32.6133 342.294 31.6C340.907 30.5333 339.84 29.44 339.094 28.32C336.96 25.28 335.894 21.4133 335.894 16.72C335.894 12.0267 337.627 8.08 341.094 4.88C344.614 1.62667 349.2 0 354.854 0C358.694 0 362.24 0.426668 365.494 1.28C368.747 2.08 370.427 3.14667 370.534 4.48C370.534 4.64 370.534 4.8 370.534 4.96C370.534 6.82667 369.947 9.2 368.774 12.08C367.6 14.9067 366.774 16.48 366.294 16.8C362.88 15.04 359.814 14.16 357.094 14.16C354.427 14.16 353.094 15.12 353.094 17.04C353.094 18.2133 354.08 19.2533 356.054 20.16C356.48 20.3733 357.094 20.6667 357.894 21.04C358.694 21.4133 359.6 21.8667 360.614 22.4C361.68 22.88 362.8 23.52 363.974 24.32C365.2 25.0667 366.507 26.08 367.894 27.36C370.72 30.0267 372.134 33.5467 372.134 37.92C372.134 43.6267 370.56 48.2933 367.414 51.92C364.267 55.5467 359.414 57.4133 352.854 57.52C349.654 57.52 346.747 57.2533 344.134 56.72C341.574 56.1867 339.334 55.1467 337.414 53.6C335.494 52.0533 334.534 50.1867 334.534 48C334.534 45.8133 334.934 43.6533 335.734 41.52C336.534 39.3333 337.387 37.8933 338.294 37.2Z" fill="#AE2428"/>
<path d="M307.197 42.96V14.48H301.517C300.61 14.48 299.97 13.3333 299.597 11.04C299.437 9.92 299.357 8.77334 299.357 7.6C299.357 6.42667 299.437 5.28 299.597 4.16C299.97 1.86667 300.61 0.720001 301.517 0.720001H328.397C329.304 0.720001 329.917 1.86667 330.237 4.16C330.45 5.28 330.557 6.42667 330.557 7.6C330.557 8.77334 330.45 9.92 330.237 11.04C329.917 13.3333 329.304 14.48 328.397 14.48H323.037V42.96H328.637C329.544 42.96 330.184 44.1067 330.557 46.4C330.77 47.52 330.877 48.6667 330.877 49.84C330.877 51.0133 330.77 52.16 330.557 53.28C330.184 55.5733 329.544 56.72 328.637 56.72H301.677C300.77 56.72 300.157 55.5733 299.837 53.28C299.624 52.16 299.517 51.0133 299.517 49.84C299.517 48.6667 299.624 47.52 299.837 46.4C300.157 44.1067 300.77 42.96 301.677 42.96H307.197Z" fill="#AE2428"/>
<path d="M270.009 55.6C270.009 56.4533 267.476 56.88 262.409 56.88C257.289 56.88 254.729 56.48 254.729 55.68V3.52C254.729 1.65334 255.716 0.720001 257.689 0.720001H272.969C286.996 0.720001 294.009 6.18667 294.009 17.12C294.009 20.4267 293.369 23.44 292.089 26.16C290.809 28.8267 288.996 30.96 286.649 32.56L296.729 49.36C296.303 50.64 294.916 52.1067 292.569 53.76C289.369 56.0533 286.729 57.2 284.649 57.2C282.569 57.2 281.023 56.4533 280.009 54.96L272.489 37.44H270.009V55.6ZM270.009 14.88V26.88H270.409C275.476 26.88 278.009 24.7733 278.009 20.56C278.009 18.64 277.503 17.2267 276.489 16.32C275.529 15.36 273.929 14.88 271.689 14.88H270.009Z" fill="#AE2428"/>
<path d="M221.12 55.92C221.12 56.72 218.613 57.12 213.6 57.12L209.12 56.88C206.453 56.6667 205.12 56.2933 205.12 55.76V2.08C205.12 1.17333 207.787 0.720001 213.12 0.720001C218.453 0.720001 221.12 1.17333 221.12 2.08V22.56L230.88 2.08C231.253 1.33334 233.387 0.960003 237.28 0.960003C244.373 0.960003 248.107 1.57334 248.48 2.8C248.48 2.90667 248.453 3.01333 248.4 3.12L234.48 28.24L250.64 50.56C250.64 50.6667 250.133 51.12 249.12 51.92C246.667 54.0533 243.787 55.7333 240.48 56.96C239.467 57.3333 238.453 57.52 237.44 57.52L235.52 57.36C233.813 56.9333 232.48 55.84 231.52 54.08L222.4 36.64H221.12V55.92Z" fill="#AE2428"/>
<path d="M142.958 57.52C135.491 57.52 129.385 55.0667 124.638 50.16C119.945 45.2533 117.598 38.1067 117.598 28.72C117.598 19.28 119.971 12.1333 124.718 7.28C129.518 2.42667 135.678 0 143.198 0C150.771 0 156.878 2.4 161.518 7.2C166.158 11.9467 168.478 19.1733 168.478 28.88C168.478 38.5333 166.105 45.7333 161.358 50.48C156.611 55.1733 150.478 57.52 142.958 57.52ZM143.038 15.36C140.478 15.36 138.318 16.5333 136.558 18.88C134.851 21.2267 133.998 24.5333 133.998 28.8C133.998 33.0133 134.825 36.2667 136.478 38.56C138.131 40.8 140.291 41.92 142.958 41.92C145.678 41.92 147.865 40.7733 149.518 38.48C151.225 36.1867 152.078 32.9067 152.078 28.64C152.078 24.3733 151.198 21.0933 149.438 18.8C147.731 16.5067 145.598 15.36 143.038 15.36Z" fill="#823135"/>
<path d="M102.62 56.8C97.8733 56.8 95.5 56.2667 95.5 55.2L93.82 23.12L84.06 55.6C83.8467 56.24 82.0333 56.56 78.62 56.56C75.2067 56.56 73.4467 56.2667 73.34 55.68L63.26 22.8L62.14 54.72C62.0867 55.52 61.0733 56.08 59.1 56.4C57.1267 56.6667 55.4733 56.8 54.14 56.8C52.86 56.8 51.6067 56.72 50.38 56.56C47.82 56.1867 46.5667 55.52 46.62 54.56L48.46 2.56C48.46 1.28 51.7133 0.639999 58.22 0.639999C60.14 0.639999 62.4867 0.799998 65.26 1.12C68.0333 1.38666 69.58 1.94666 69.9 2.8L78.86 28L86.7 2.72C87.18 1.33333 90.86 0.639999 97.74 0.639999C99.7133 0.639999 102.06 0.799998 104.78 1.12C107.553 1.38666 108.94 1.89333 108.94 2.64L111.26 55.12C111.26 55.7067 110.22 56.1333 108.14 56.4C106.06 56.6667 104.22 56.8 102.62 56.8Z" fill="#823135"/>
<path d="M38.4 15.2C38.4 20.7467 36 24.96 31.2 27.84C33.8133 28.8 36 30.4533 37.76 32.8C39.52 35.1467 40.4 38.48 40.4 42.8C40.4 47.0667 38.8 50.4533 35.6 52.96C32.4533 55.4667 27.92 56.72 22 56.72H3.12C2.21333 56.72 1.46667 56.4267 0.88 55.84C0.293333 55.2 0 54.3733 0 53.36V2.16C0 1.57334 0.0800003 1.2 0.24 1.04C0.453334 0.826667 0.853333 0.720001 1.44 0.720001H19.68C32.16 0.720001 38.4 5.54667 38.4 15.2ZM15.36 13.68V24.16H15.76C20.88 24.16 23.44 22.4533 23.44 19.04C23.44 17.1733 22.9333 15.8133 21.92 14.96C20.96 14.1067 19.3333 13.68 17.04 13.68H15.36ZM15.36 33.6V44H16.8C19.0933 44 20.7733 43.5733 21.84 42.72C22.9067 41.8667 23.44 40.5067 23.44 38.64C23.44 36.7733 22.9333 35.4667 21.92 34.72C20.96 33.9733 19.3333 33.6 17.04 33.6H15.36Z" fill="#823135"/>
</svg>
